<svg xmlns="http://www.w3.org/2000/svg" xmlns:krita="http://krita.org/namespaces/svg/krita" xmlns:xlink="http://www.w3.org/1999/xlink" width="327.68" height="327.68" viewBox="0 0 245.76 245.76"><path id="shape0" fill="#008aa2" fill-rule="evenodd" stroke="#000" stroke-linecap="square" stroke-linejoin="bevel" stroke-width=".24" d="M13.1775 16.6334L15.2445 12.2305L14.7278 5.1368L11.1104 2.6907L12.9191 8.07211L10.852 15.4104L6.97631 0L5.6844 3.91375L8.52661 15.655L2.8422 8.80594L2.58382 5.38141L0 10.2736L7.49308 17.8565L7.49308 19.8134" transform="matrix(0.479029283922423 -0.949131195053154 1.00101143009956 0.454202242894995 130.370665898294 185.880012501026)"/><path id="shape1" fill="#5fcde4" fill-rule="evenodd" stroke="#000" stroke-linecap="square" stroke-linejoin="bevel" stroke-width=".24" d="M74.4773 0L97.9815 2.202L134.795 16.2397L160.282 50.9212L154.618 89.4561L130.831 120.009L90.3356 126.615L42.4775 125.239L0 104.595L4.81412 75.1431L39.0793 64.6837L26.3361 84.7769L36.2475 109.825L79.669 111.751L114.689 82.0244L102.512 58.0777L79.669 56.1509" transform="matrix(1.33846877758449 0 0 1.37519452662412 2.84217113362282e-14 71.6400015177958)"/><path id="shape3" fill="#5fcde4" fill-rule="evenodd" stroke="#000" stroke-linecap="square" stroke-linejoin="bevel" stroke-width=".24" d="M24.6208 30.0372C31.9394 26.8501 35.844 19.4202 33.9998 12.1905C32.1555 4.96087 25.0611 -0.113496 16.9589 0.00192957C8.85681 0.117355 1.93797 5.39136 0.339909 12.6701C-1.25815 19.9488 2.89673 27.2639 10.3199 30.2409" transform="matrix(2.47029774879916 0 0 2.16078899242331 50.5185612794461 58.6619969567073)"/><path id="shape4" fill="#cbdbfc" fill-rule="evenodd" stroke="#000" stroke-linecap="square" stroke-linejoin="bevel" stroke-width=".24" d="M4.41296 0C4.41296 7.35694 -1.77922 13.5583 0.506429 21.7867C3.489 32.5239 27.0408 21.1322 37.0167 26.7437C70.0716 45.337 47.1755 14.9631 47.1755 0.106763" transform="matrix(1.34731764383915 0 0 1.12701291084493 57.3489298826018 135.38691659081)"/><path id="shape5" fill="#5fcde4" fill-rule="evenodd" stroke="#000" stroke-linecap="square" stroke-linejoin="bevel" stroke-width=".24" d="M0 0.296985C40.5426 65.4869 17.4558 66.3994 57.2969 0" transform="matrix(1.34731764383915 0 0 1.12701291084493 53.5891456163821 121.341298304733)"/><path id="shape6" fill="#fff" fill-rule="evenodd" stroke="#000" stroke-linecap="square" stroke-linejoin="bevel" stroke-width=".24" d="M41.5208 24.48C41.5208 10.9601 32.226 -5.02066e-14 20.7604 0C9.29474 5.02066e-14 -8.7794e-15 10.9601 0 24.48C8.7794e-15 37.9999 9.29474 48.96 20.7604 48.96C32.226 48.96 41.5208 37.9999 41.5208 24.48Z" transform="matrix(1.34731764383915 0 0 1.12701291084493 40.0731204777323 81.5518677918798)"/><ellipse id="shape01" cx="20.522" cy="24.48" fill="#fff" stroke="#000" stroke-linecap="square" stroke-linejoin="bevel" stroke-width=".24" rx="20.522" ry="24.48" transform="matrix(1.34731760203101 0 0 1.12701294891582 89.0035581569308 81.3103570089054)"/><path id="shape7" fill="none" stroke="#000" stroke-linecap="square" stroke-linejoin="bevel" stroke-width="1.2" d="M0 0" transform="matrix(1.91391667124089 0 0 1.12701291084493 30.0731200306975 192.122547025721)"/><ellipse id="shape8" cx="5.28" cy="5.04" fill="none" stroke="#3f3f74" stroke-linecap="square" stroke-linejoin="bevel" stroke-width="7.2" rx="5.28" ry="5.04" transform="matrix(1.34731764383915 0 0 1.12701291084493 50.7926823422902 112.112192579108)"/><ellipse id="shape011" cx="5.28" cy="5.04" fill="none" stroke="#3f3f74" stroke-linecap="square" stroke-linejoin="bevel" stroke-width="7.2" rx="5.28" ry="5.04" transform="matrix(1.34731762957182 0 0 1.12701290619666 117.500925069906 95.6522607006025)"/><ellipse id="shape02" cx=".954" cy="7.963" fill="#3f3f74" stroke="#000" stroke-linecap="square" stroke-linejoin="bevel" stroke-opacity="0" stroke-width="0" rx=".954" ry="7.963" transform="matrix(1.34731765421164 0 0 1.12701286288664 87.8035490687741 142.182064960084)"/><ellipse id="shape03" cx=".954" cy="7.963" fill="#3f3f74" stroke="#000" stroke-linecap="square" stroke-linejoin="bevel" stroke-opacity="0" stroke-width="0" rx=".954" ry="7.963" transform="matrix(1.34731769866074 0 0 1.1270128711136 94.7458485755462 142.260807031197)"/><path id="shape11" fill="#cbdbfc" fill-rule="evenodd" stroke="#000" stroke-linecap="square" stroke-linejoin="bevel" stroke-width=".24" d="M2.455 0.03C4.84159 6.39686 4.45442 12.0362 0.646762 20.3546C-1.95921 31.2466 4.09341 26.2165 4.97183 23.4864C5.73159 26.2241 12.8456 31.6357 8.93747 20.2368C5.24419 11.8459 5.02402 6.48172 7.525 0Z" transform="matrix(2.47029774879916 0 0 2.16078899242331 80.5981151306554 79.6909270990818)"/><path id="shape13" fill="#cbdbfc" fill-rule="evenodd" stroke="#000" stroke-linecap="square" stroke-linejoin="bevel" stroke-width=".24" d="M0 16.0869C2.73382 11.5609 13.0163 -10.958 6.27635 6.60218C6.86757 15.8971 26.4512 30.015 8.31634 15.8488" transform="matrix(2.14335958919007 0 0 2.04663065935576 81.5297886049541 -2.25358595155281e-05)"/><path id="shape14" fill="#cbdbfc" fill-rule="evenodd" stroke="#000" stroke-linecap="square" stroke-linejoin="miter" stroke-miterlimit="2" stroke-width=".24" d="M5.29174 0C-15.6759 33.5382 34.0182 33.8144 10.8562 0.169707" transform="matrix(3.04472495329739 0 0 2.04663065935576 65.9495791733951 32.0094619114706)"/><path id="shape15" fill="#0098b6" fill-rule="evenodd" stroke="#000" stroke-linecap="square" stroke-linejoin="bevel" stroke-width=".24" d="M1.86676 38.8626L0 29.3591L20.195 8.48528L61.094 0L52.6087 6.95793L56.1726 7.63675L84.8528 17.8191L70.937 18.1585L80.2708 24.2679L66.6943 23.5891L81.6284 34.7897L81.7981 62.282L20.7041 56.3423" transform="matrix(1.10972651497799 0 0 1.00000006705522 147.074409745468 42.2567055845786)"/><path id="shape16" fill="#5fcde4" fill-rule="evenodd" stroke="#000" stroke-linecap="square" stroke-linejoin="bevel" stroke-width=".24" d="M11.52 79.2L0 30.72L21.6 8.4L60.96 0L47.76 9.6L77.76 18L52.8 16.32L64.32 22.56L48.48 18.72L78.24 43.92L79.68 100.32L67.44 156.24L48.48 182.88L42.96 153.12L38.16 88.32L21.6 59.04L22.56 95.28" transform="matrix(1.10972651497799 0 0 1.00000006705522 157.337011821903 47.0400009966097)"/><path id="shape011" fill="#639bff" fill-opacity=".4" fill-rule="evenodd" stroke="#000" stroke-linecap="square" stroke-linejoin="bevel" stroke-opacity="0" stroke-width="0" d="M0 212.4L8.64 58.32L43.56 37.08L56.88 88.56L72.36 99L79.92 126L105.84 147.6L129.6 151.2L176.4 152.28L187.92 146.88L208.8 126L216.72 62.64L239.4 54.36L250.56 10.08L281.88 0L290.16 224.64" transform="matrix(1.00000004470348 0 0 1.00000004470348 -22.679999480467 42.1199990351528)"/><ellipse id="shape111" cx="3.96" cy="4.08" fill="#cbdbfc" fill-rule="evenodd" stroke="#000" stroke-linecap="square" stroke-linejoin="bevel" stroke-opacity="0" stroke-width="0" rx="3.96" ry="4.08" transform="matrix(0.636363687444656 0 0 0.470588288666862 89.5800071639164 81.5400092476096)"/><text id="shape2" fill="#fff" stroke="#cbdbfc" stroke-linecap="square" stroke-linejoin="bevel" stroke-width=".24" font-family="URW Gothic" font-size="48" font-size-adjust=".515" font-weight="600" text-anchor="middle" transform="matrix(-1.00000004470348 0 0 -1.00000004470348 246.461203010098 197.890889909622)" krita:useRichText="true"><tspan x="51.836">msi</tspan></text></svg>